<svg width="20" height="18" viewBox="0 0 20 18" fill="none" xmlns="http://www.w3.org/2000/svg">
<path d="M18.25 0.351807H1.75C1.35218 0.351807 0.970644 0.509842 0.68934 0.791146C0.408035 1.07245 0.25 1.45398 0.25 1.85181V16.8518C0.250068 16.9796 0.282807 17.1053 0.345109 17.2169C0.407411 17.3286 0.497208 17.4224 0.605974 17.4896C0.71474 17.5567 0.838867 17.595 0.966569 17.6007C1.09427 17.6064 1.22131 17.5793 1.33563 17.5221L4 16.1899L6.66437 17.5221C6.76857 17.5743 6.88348 17.6014 7 17.6014C7.11652 17.6014 7.23143 17.5743 7.33563 17.5221L10 16.1899L12.6644 17.5221C12.7686 17.5743 12.8835 17.6014 13 17.6014C13.1165 17.6014 13.2314 17.5743 13.3356 17.5221L16 16.1899L18.6644 17.5221C18.7787 17.5793 18.9057 17.6064 19.0334 17.6007C19.1611 17.595 19.2853 17.5567 19.394 17.4896C19.5028 17.4224 19.5926 17.3286 19.6549 17.2169C19.7172 17.1053 19.7499 16.9796 19.75 16.8518V1.85181C19.75 1.45398 19.592 1.07245 19.3107 0.791146C19.0294 0.509842 18.6478 0.351807 18.25 0.351807ZM18.25 15.6387L16.3356 14.6806C16.2314 14.6284 16.1165 14.6013 16 14.6013C15.8835 14.6013 15.7686 14.6284 15.6644 14.6806L13 16.0137L10.3356 14.6806C10.2314 14.6284 10.1165 14.6013 10 14.6013C9.88348 14.6013 9.76857 14.6284 9.66438 14.6806L7 16.0137L4.33563 14.6806C4.23143 14.6284 4.11651 14.6013 4 14.6013C3.88349 14.6013 3.76857 14.6284 3.66437 14.6806L1.75 15.6387V1.85181H18.25V15.6387ZM10.75 7.10181C10.75 6.90289 10.829 6.71213 10.9697 6.57148C11.1103 6.43082 11.3011 6.35181 11.5 6.35181H16C16.1989 6.35181 16.3897 6.43082 16.5303 6.57148C16.671 6.71213 16.75 6.90289 16.75 7.10181C16.75 7.30072 16.671 7.49148 16.5303 7.63214C16.3897 7.77279 16.1989 7.85181 16 7.85181H11.5C11.3011 7.85181 11.1103 7.77279 10.9697 7.63214C10.829 7.49148 10.75 7.30072 10.75 7.10181ZM10.75 10.1018C10.75 9.90289 10.829 9.71213 10.9697 9.57148C11.1103 9.43082 11.3011 9.35181 11.5 9.35181H16C16.1989 9.35181 16.3897 9.43082 16.5303 9.57148C16.671 9.71213 16.75 9.90289 16.75 10.1018C16.75 10.3007 16.671 10.4915 16.5303 10.6321C16.3897 10.7728 16.1989 10.8518 16 10.8518H11.5C11.3011 10.8518 11.1103 10.7728 10.9697 10.6321C10.829 10.4915 10.75 10.3007 10.75 10.1018ZM4 12.3518H8.5C8.69891 12.3518 8.88968 12.2728 9.03033 12.1321C9.17098 11.9915 9.25 11.8007 9.25 11.6018V5.60181C9.25 5.40289 9.17098 5.21213 9.03033 5.07148C8.88968 4.93082 8.69891 4.85181 8.5 4.85181H4C3.80109 4.85181 3.61032 4.93082 3.46967 5.07148C3.32902 5.21213 3.25 5.40289 3.25 5.60181V11.6018C3.25 11.8007 3.32902 11.9915 3.46967 12.1321C3.61032 12.2728 3.80109 12.3518 4 12.3518ZM4.75 6.35181H7.75V10.8518H4.75V6.35181Z" fill="#FFFFFF"/>
</svg>
