<svg width="14" height="22" viewBox="0 0 14 22" fill="none" xmlns="http://www.w3.org/2000/svg">
<path d="M11.5 0.101974H2.5C1.90326 0.101974 1.33097 0.339027 0.90901 0.760984C0.487053 1.18294 0.25 1.75524 0.25 2.35197V18.852C0.25 19.4487 0.487053 20.021 0.90901 20.443C1.33097 20.8649 1.90326 21.102 2.5 21.102H11.5C12.0967 21.102 12.669 20.8649 13.091 20.443C13.5129 20.021 13.75 19.4487 13.75 18.852V2.35197C13.75 1.75524 13.5129 1.18294 13.091 0.760984C12.669 0.339027 12.0967 0.101974 11.5 0.101974ZM1.75 4.60197H12.25V16.602H1.75V4.60197ZM2.5 1.60197H11.5C11.6989 1.60197 11.8897 1.68099 12.0303 1.82164C12.171 1.9623 12.25 2.15306 12.25 2.35197V3.10197H1.75V2.35197C1.75 2.15306 1.82902 1.9623 1.96967 1.82164C2.11032 1.68099 2.30109 1.60197 2.5 1.60197ZM11.5 19.602H2.5C2.30109 19.602 2.11032 19.523 1.96967 19.3823C1.82902 19.2417 1.75 19.0509 1.75 18.852V18.102H12.25V18.852C12.25 19.0509 12.171 19.2417 12.0303 19.3823C11.8897 19.523 11.6989 19.602 11.5 19.602Z" fill="#114036"/>
</svg>
