<svg width="24" height="17" viewBox="0 0 24 17" fill="none" xmlns="http://www.w3.org/2000/svg">
<path d="M22.95 9.70197C22.8713 9.76107 22.7816 9.80407 22.6862 9.82851C22.5908 9.85295 22.4915 9.85837 22.394 9.84444C22.2965 9.83051 22.2027 9.79751 22.1179 9.74733C22.0332 9.69715 21.9591 9.63077 21.9 9.55198C21.448 8.94435 20.8596 8.45134 20.1822 8.11265C19.5048 7.77395 18.7574 7.59904 18 7.60197C17.8011 7.60197 17.6104 7.52296 17.4697 7.3823C17.3291 7.24165 17.25 7.05089 17.25 6.85197C17.25 6.65306 17.3291 6.4623 17.4697 6.32164C17.6104 6.18099 17.8011 6.10197 18 6.10197C18.4209 6.10194 18.8332 5.98389 19.1903 5.76123C19.5474 5.53858 19.8349 5.22024 20.0201 4.84239C20.2054 4.46453 20.2809 4.0423 20.2382 3.62366C20.1955 3.20501 20.0363 2.80673 19.7786 2.47406C19.5209 2.14138 19.175 1.88765 18.7803 1.74168C18.3856 1.5957 17.9579 1.56334 17.5458 1.64827C17.1336 1.7332 16.7535 1.93201 16.4487 2.22212C16.1439 2.51223 15.9265 2.88202 15.8213 3.28947C15.7967 3.38489 15.7535 3.47452 15.6942 3.55324C15.635 3.63197 15.5608 3.69826 15.4759 3.74831C15.391 3.79837 15.2971 3.83122 15.1995 3.84498C15.102 3.85875 15.0026 3.85316 14.9072 3.82854C14.8118 3.80391 14.7222 3.76074 14.6435 3.70148C14.5647 3.64222 14.4984 3.56803 14.4484 3.48315C14.3983 3.39827 14.3655 3.30436 14.3517 3.20679C14.338 3.10922 14.3435 3.00989 14.3682 2.91447C14.5142 2.34946 14.7901 1.82632 15.1738 1.38668C15.5576 0.947041 16.0387 0.603042 16.5788 0.382052C17.119 0.161063 17.7032 0.0691821 18.2851 0.113721C18.867 0.158261 19.4304 0.33799 19.9306 0.63861C20.4308 0.93923 20.8539 1.35244 21.1663 1.84537C21.4787 2.33829 21.6718 2.89732 21.7301 3.47798C21.7884 4.05864 21.7104 4.6449 21.5023 5.19011C21.2942 5.73532 20.9617 6.22444 20.5313 6.61854C21.5511 7.0601 22.4377 7.7608 23.1029 8.65104C23.1619 8.73003 23.2049 8.81991 23.2292 8.91551C23.2535 9.01112 23.2587 9.11059 23.2445 9.20821C23.2303 9.30583 23.197 9.3997 23.1465 9.48443C23.0959 9.56915 23.0292 9.64308 22.95 9.70197ZM17.8988 15.477C17.9512 15.5624 17.9859 15.6574 18.0009 15.7564C18.016 15.8554 18.0111 15.9564 17.9864 16.0535C17.9618 16.1506 17.918 16.2417 17.8575 16.3216C17.7971 16.4015 17.7213 16.4684 17.6346 16.5185C17.5479 16.5686 17.452 16.6008 17.3526 16.6133C17.2532 16.6257 17.1524 16.6181 17.056 16.5909C16.9596 16.5638 16.8696 16.5176 16.7913 16.4551C16.7131 16.3925 16.6481 16.315 16.6004 16.227C16.1278 15.4272 15.455 14.7644 14.6482 14.304C13.8414 13.8436 12.9285 13.6014 11.9996 13.6014C11.0706 13.6014 10.1577 13.8436 9.35095 14.304C8.54415 14.7644 7.87131 15.4272 7.39879 16.227C7.3519 16.3166 7.28737 16.3958 7.20908 16.4599C7.13078 16.5239 7.04034 16.5714 6.94319 16.5996C6.84605 16.6278 6.7442 16.6361 6.64379 16.6239C6.54338 16.6117 6.44647 16.5793 6.35889 16.5287C6.27132 16.478 6.19489 16.4102 6.1342 16.3293C6.07352 16.2484 6.02983 16.156 6.00576 16.0578C5.9817 15.9595 5.97775 15.8574 5.99417 15.7576C6.01059 15.6578 6.04703 15.5623 6.10129 15.477C6.82841 14.2276 7.9371 13.2445 9.26442 12.672C8.51754 12.1001 7.96863 11.3086 7.69485 10.4087C7.42108 9.50876 7.4362 8.54566 7.73809 7.65476C8.03998 6.76387 8.61346 5.98997 9.37792 5.44186C10.1424 4.89374 11.0594 4.59897 12 4.59897C12.9407 4.59897 13.8577 4.89374 14.6222 5.44186C15.3866 5.98997 15.9601 6.76387 16.262 7.65476C16.5639 8.54566 16.579 9.50876 16.3052 10.4087C16.0315 11.3086 15.4825 12.1001 14.7357 12.672C16.063 13.2445 17.1717 14.2276 17.8988 15.477ZM12 12.102C12.5934 12.102 13.1734 11.926 13.6668 11.5964C14.1601 11.2667 14.5446 10.7982 14.7717 10.25C14.9987 9.70185 15.0582 9.09865 14.9424 8.5167C14.8266 7.93476 14.5409 7.40021 14.1214 6.98065C13.7018 6.5611 13.1673 6.27537 12.5853 6.15962C12.0034 6.04386 11.4002 6.10327 10.852 6.33034C10.3038 6.5574 9.83528 6.94192 9.50563 7.43526C9.17599 7.92861 9.00004 8.50863 9.00004 9.10197C9.00004 9.89762 9.31611 10.6607 9.87872 11.2233C10.4413 11.7859 11.2044 12.102 12 12.102ZM6.75004 6.85197C6.75004 6.65306 6.67102 6.4623 6.53037 6.32164C6.38972 6.18099 6.19895 6.10197 6.00004 6.10197C5.57922 6.10194 5.16685 5.98389 4.80976 5.76123C4.45267 5.53858 4.16518 5.22024 3.97995 4.84239C3.79471 4.46453 3.71915 4.0423 3.76185 3.62366C3.80455 3.20501 3.9638 2.80673 4.22152 2.47406C4.47923 2.14138 4.82507 1.88765 5.21976 1.74168C5.61445 1.5957 6.04216 1.56334 6.45432 1.64827C6.86648 1.7332 7.24656 1.93201 7.55139 2.22212C7.85622 2.51223 8.07359 2.88202 8.17879 3.28947C8.22852 3.48217 8.35276 3.64722 8.52418 3.74831C8.6956 3.84941 8.90016 3.87826 9.09285 3.82854C9.28555 3.77881 9.4506 3.65457 9.55169 3.48315C9.65279 3.31173 9.68164 3.10717 9.63192 2.91447C9.48589 2.34946 9.21002 1.82632 8.82624 1.38668C8.44246 0.947041 7.96137 0.603042 7.42125 0.382052C6.88113 0.161063 6.29688 0.0691821 5.715 0.113721C5.13312 0.158261 4.56967 0.33799 4.06947 0.63861C3.56928 0.93923 3.14615 1.35244 2.83375 1.84537C2.52135 2.33829 2.32831 2.89732 2.26998 3.47798C2.21165 4.05864 2.28965 4.6449 2.49777 5.19011C2.70589 5.73532 3.03838 6.22444 3.46879 6.61854C2.44999 7.06051 1.56446 7.76118 0.90004 8.65104C0.780569 8.81017 0.729204 9.01024 0.757247 9.20724C0.785289 9.40424 0.890442 9.58204 1.04957 9.70151C1.2087 9.82098 1.40877 9.87234 1.60577 9.8443C1.80278 9.81626 1.98057 9.71111 2.10004 9.55198C2.55209 8.94435 3.14049 8.45134 3.81788 8.11265C4.49526 7.77395 5.24271 7.59904 6.00004 7.60197C6.19895 7.60197 6.38972 7.52296 6.53037 7.3823C6.67102 7.24165 6.75004 7.05089 6.75004 6.85197Z" fill="#114036"/>
</svg>
