<svg width="28" height="18" viewBox="0 0 28 18" fill="none" xmlns="http://www.w3.org/2000/svg">
<path d="M23.8933 5.98301C26.467 5.69522 27.4475 4.20671 27.3445 2.73693C27.2615 1.54425 26.2021 -0.331116 23.5656 0.0503823C21.9978 0.276604 20.2616 1.54559 19.4643 3.66458C18.3741 2.34606 16.5777 1.07039 14.4749 0.936529C10.2719 0.696921 5.7413 3.71946 4.24045 8.6361C4.18627 8.85637 4.1465 9.07994 4.12139 9.30539C2.36104 10.8595 0.117788 13.5554 7.40726e-05 17.2901C-0.000819774 17.3305 0.00638385 17.3707 0.0212597 17.4082C0.0361355 17.4458 0.0583821 17.48 0.0866859 17.5088C0.11499 17.5376 0.148777 17.5605 0.186054 17.576C0.223331 17.5916 0.263341 17.5995 0.303722 17.5993H4.22306C4.26343 17.5995 4.30344 17.5915 4.34066 17.5759C4.37789 17.5602 4.41157 17.5372 4.43968 17.5082C4.46779 17.4792 4.48975 17.4448 4.50425 17.4071C4.51874 17.3694 4.52547 17.3291 4.52403 17.2887C4.49193 16.2928 4.51333 13.1217 5.92723 11.1018C6.95526 11.9301 8.0894 12.6171 9.29946 13.1445C8.8757 14.4877 8.65037 15.8857 8.63064 17.2941C8.62992 17.3343 8.63722 17.3742 8.65209 17.4115C8.66697 17.4488 8.68912 17.4828 8.71727 17.5115C8.74541 17.5401 8.77898 17.5629 8.81601 17.5784C8.85304 17.594 8.89279 17.602 8.93295 17.602H14.1739C14.2118 17.6021 14.249 17.5922 14.2819 17.5732C14.3147 17.5542 14.3418 17.5268 14.3606 17.4939C14.3794 17.461 14.3891 17.4236 14.3887 17.3857C14.3883 17.3478 14.3779 17.3106 14.3585 17.278C14.0227 16.7185 13.3138 15.5272 12.9753 14.2622C13.4796 14.3532 13.9973 14.4322 14.5484 14.479C16.5611 14.6448 18.5687 14.1033 20.2254 12.9477C20.2121 14.6156 19.5834 16.3825 19.2222 17.1736C19.201 17.2195 19.1917 17.27 19.1953 17.3204C19.1988 17.3708 19.215 17.4195 19.2423 17.4619C19.2697 17.5044 19.3073 17.5393 19.3517 17.5633C19.3962 17.5873 19.4459 17.5997 19.4964 17.5993H24.6411C24.6813 17.5991 24.7212 17.591 24.7583 17.5753C24.7954 17.5596 24.829 17.5368 24.8573 17.508C24.8855 17.4793 24.9078 17.4452 24.9228 17.4078C24.9378 17.3704 24.9452 17.3304 24.9447 17.2901C24.8725 13.7696 23.48 11.5101 22.2988 10.217C20.7057 8.35901 21.2688 6.27617 23.8933 5.98301ZM23.2753 1.40102C23.456 1.40102 23.6326 1.45464 23.7829 1.5551C23.9331 1.65556 24.0502 1.79835 24.1194 1.96541C24.1885 2.13246 24.2066 2.31629 24.1714 2.49364C24.1361 2.67099 24.0491 2.83389 23.9213 2.96175C23.7936 3.08962 23.6308 3.17669 23.4535 3.21197C23.2763 3.24724 23.0926 3.22914 22.9257 3.15994C22.7587 3.09074 22.616 2.97356 22.5157 2.82321C22.4153 2.67286 22.3617 2.4961 22.3617 2.31528C22.3615 2.19517 22.385 2.0762 22.4309 1.9652C22.4767 1.8542 22.544 1.75334 22.6289 1.66841C22.7138 1.58347 22.8145 1.51614 22.9255 1.47025C23.0364 1.42437 23.1553 1.40084 23.2753 1.40102ZM10.4004 10.6547C9.48005 10.4258 7.45751 9.06311 7.04284 8.64681C7.30101 7.15562 8.9704 5.43419 9.93753 4.66986C11.0729 3.77984 12.4695 3.28872 13.9117 3.27237C15.8125 3.32457 16.8706 4.5708 17.5234 5.42616C17.613 5.54262 17.5876 5.7327 17.4418 5.7501C15.9837 5.93888 14.5862 6.45108 13.3512 7.24932C12.1487 8.05649 11.1601 9.26524 10.4004 10.6547ZM16.6686 12.2356C15.3082 12.5876 13.4837 12.253 13.3111 11.6586C13.1385 11.0643 14.6033 9.78461 16.8867 9.44193C18.5266 9.19831 19.4723 9.47004 19.6797 10.0242C19.9312 10.7002 18.4932 11.763 16.6686 12.2356Z" fill="#B8AFA4"/>
</svg>
