<svg width="24" height="25" viewBox="0 0 24 25" fill="none" xmlns="http://www.w3.org/2000/svg">
<path opacity="0.2" d="M12.75 3.60198V20.852H3.75V8.60354C3.74992 8.48003 3.78034 8.35842 3.83857 8.24949C3.89679 8.14057 3.98101 8.04771 4.08375 7.97916L11.5837 2.97948C11.6966 2.90419 11.8277 2.86091 11.9632 2.85426C12.0987 2.84762 12.2335 2.87784 12.3532 2.94172C12.4728 3.00559 12.5729 3.10073 12.6428 3.217C12.7127 3.33327 12.7497 3.46632 12.75 3.60198Z" fill="#114036"/>
<path d="M22.5 20.102H21V9.60197C21 9.20415 20.842 8.82262 20.5607 8.54131C20.2794 8.26001 19.8978 8.10197 19.5 8.10197H13.5V3.60197C13.5002 3.33034 13.4266 3.06377 13.2871 2.83069C13.1476 2.59762 12.9474 2.40679 12.708 2.27859C12.4685 2.15038 12.1987 2.08961 11.9274 2.10276C11.6561 2.1159 11.3935 2.20247 11.1675 2.35322L3.6675 7.35197C3.46176 7.48924 3.29315 7.67526 3.17669 7.89346C3.06023 8.11165 2.99953 8.35526 3 8.6026V20.102H1.5C1.30109 20.102 1.11032 20.181 0.96967 20.3216C0.829018 20.4623 0.75 20.6531 0.75 20.852C0.75 21.0509 0.829018 21.2416 0.96967 21.3823C1.11032 21.523 1.30109 21.602 1.5 21.602H22.5C22.6989 21.602 22.8897 21.523 23.0303 21.3823C23.171 21.2416 23.25 21.0509 23.25 20.852C23.25 20.6531 23.171 20.4623 23.0303 20.3216C22.8897 20.181 22.6989 20.102 22.5 20.102ZM19.5 9.60197V20.102H13.5V9.60197H19.5ZM4.5 8.6026L12 3.60197V20.102H4.5V8.6026ZM10.5 11.102V12.602C10.5 12.8009 10.421 12.9917 10.2803 13.1323C10.1397 13.273 9.94891 13.352 9.75 13.352C9.55109 13.352 9.36032 13.273 9.21967 13.1323C9.07902 12.9917 9 12.8009 9 12.602V11.102C9 10.9031 9.07902 10.7123 9.21967 10.5716C9.36032 10.431 9.55109 10.352 9.75 10.352C9.94891 10.352 10.1397 10.431 10.2803 10.5716C10.421 10.7123 10.5 10.9031 10.5 11.102ZM7.5 11.102V12.602C7.5 12.8009 7.42098 12.9917 7.28033 13.1323C7.13968 13.273 6.94891 13.352 6.75 13.352C6.55109 13.352 6.36032 13.273 6.21967 13.1323C6.07902 12.9917 6 12.8009 6 12.602V11.102C6 10.9031 6.07902 10.7123 6.21967 10.5716C6.36032 10.431 6.55109 10.352 6.75 10.352C6.94891 10.352 7.13968 10.431 7.28033 10.5716C7.42098 10.7123 7.5 10.9031 7.5 11.102ZM7.5 16.352V17.852C7.5 18.0509 7.42098 18.2417 7.28033 18.3823C7.13968 18.523 6.94891 18.602 6.75 18.602C6.55109 18.602 6.36032 18.523 6.21967 18.3823C6.07902 18.2417 6 18.0509 6 17.852V16.352C6 16.1531 6.07902 15.9623 6.21967 15.8216C6.36032 15.681 6.55109 15.602 6.75 15.602C6.94891 15.602 7.13968 15.681 7.28033 15.8216C7.42098 15.9623 7.5 16.1531 7.5 16.352ZM10.5 16.352V17.852C10.5 18.0509 10.421 18.2417 10.2803 18.3823C10.1397 18.523 9.94891 18.602 9.75 18.602C9.55109 18.602 9.36032 18.523 9.21967 18.3823C9.07902 18.2417 9 18.0509 9 17.852V16.352C9 16.1531 9.07902 15.9623 9.21967 15.8216C9.36032 15.681 9.55109 15.602 9.75 15.602C9.94891 15.602 10.1397 15.681 10.2803 15.8216C10.421 15.9623 10.5 16.1531 10.5 16.352Z" fill="#114036"/>
</svg>
