<svg width="24" height="25" viewBox="0 0 24 25" fill="none" xmlns="http://www.w3.org/2000/svg">
<path opacity="0.2" d="M20.25 5.10191V8.85191H3.75V5.10191C3.75 4.903 3.82902 4.71224 3.96967 4.57158C4.11032 4.43093 4.30109 4.35191 4.5 4.35191H19.5C19.6989 4.35191 19.8897 4.43093 20.0303 4.57158C20.171 4.71224 20.25 4.903 20.25 5.10191Z" fill="#114036"/>
<path d="M19.5 3.60191H17.25V2.85191C17.25 2.653 17.171 2.46224 17.0303 2.32158C16.8897 2.18093 16.6989 2.10191 16.5 2.10191C16.3011 2.10191 16.1103 2.18093 15.9697 2.32158C15.829 2.46224 15.75 2.653 15.75 2.85191V3.60191H8.25V2.85191C8.25 2.653 8.17098 2.46224 8.03033 2.32158C7.88968 2.18093 7.69891 2.10191 7.5 2.10191C7.30109 2.10191 7.11032 2.18093 6.96967 2.32158C6.82902 2.46224 6.75 2.653 6.75 2.85191V3.60191H4.5C4.10218 3.60191 3.72064 3.75995 3.43934 4.04125C3.15804 4.32256 3 4.70409 3 5.10191V20.1019C3 20.4997 3.15804 20.8813 3.43934 21.1626C3.72064 21.4439 4.10218 21.6019 4.5 21.6019H19.5C19.8978 21.6019 20.2794 21.4439 20.5607 21.1626C20.842 20.8813 21 20.4997 21 20.1019V5.10191C21 4.70409 20.842 4.32256 20.5607 4.04125C20.2794 3.75995 19.8978 3.60191 19.5 3.60191ZM6.75 5.10191V5.85191C6.75 6.05083 6.82902 6.24159 6.96967 6.38224C7.11032 6.5229 7.30109 6.60191 7.5 6.60191C7.69891 6.60191 7.88968 6.5229 8.03033 6.38224C8.17098 6.24159 8.25 6.05083 8.25 5.85191V5.10191H15.75V5.85191C15.75 6.05083 15.829 6.24159 15.9697 6.38224C16.1103 6.5229 16.3011 6.60191 16.5 6.60191C16.6989 6.60191 16.8897 6.5229 17.0303 6.38224C17.171 6.24159 17.25 6.05083 17.25 5.85191V5.10191H19.5V8.10191H4.5V5.10191H6.75ZM19.5 20.1019H4.5V9.60191H19.5V20.1019ZM13.125 12.9769C13.125 13.1994 13.059 13.4169 12.9354 13.6019C12.8118 13.7869 12.6361 13.9311 12.4305 14.0163C12.225 14.1014 11.9988 14.1237 11.7805 14.0803C11.5623 14.0369 11.3618 13.9297 11.2045 13.7724C11.0472 13.6151 10.94 13.4146 10.8966 13.1964C10.8532 12.9782 10.8755 12.752 10.9606 12.5464C11.0458 12.3408 11.19 12.1651 11.375 12.0415C11.56 11.9179 11.7775 11.8519 12 11.8519C12.2984 11.8519 12.5845 11.9704 12.7955 12.1814C13.0065 12.3924 13.125 12.6785 13.125 12.9769ZM17.25 12.9769C17.25 13.1994 17.184 13.4169 17.0604 13.6019C16.9368 13.7869 16.7611 13.9311 16.5555 14.0163C16.35 14.1014 16.1238 14.1237 15.9055 14.0803C15.6873 14.0369 15.4868 13.9297 15.3295 13.7724C15.1722 13.6151 15.065 13.4146 15.0216 13.1964C14.9782 12.9782 15.0005 12.752 15.0856 12.5464C15.1708 12.3408 15.315 12.1651 15.5 12.0415C15.685 11.9179 15.9025 11.8519 16.125 11.8519C16.4234 11.8519 16.7095 11.9704 16.9205 12.1814C17.1315 12.3924 17.25 12.6785 17.25 12.9769ZM9 16.7269C9 16.9494 8.93402 17.1669 8.8104 17.3519C8.68679 17.5369 8.51109 17.6811 8.30552 17.7663C8.09995 17.8514 7.87375 17.8737 7.65552 17.8303C7.43729 17.7869 7.23684 17.6797 7.0795 17.5224C6.92217 17.3651 6.81502 17.1646 6.77162 16.9464C6.72821 16.7282 6.75049 16.502 6.83564 16.2964C6.92078 16.0908 7.06498 15.9151 7.24998 15.7915C7.43499 15.6679 7.6525 15.6019 7.875 15.6019C8.17337 15.6019 8.45952 15.7204 8.6705 15.9314C8.88147 16.1424 9 16.4285 9 16.7269ZM13.125 16.7269C13.125 16.9494 13.059 17.1669 12.9354 17.3519C12.8118 17.5369 12.6361 17.6811 12.4305 17.7663C12.225 17.8514 11.9988 17.8737 11.7805 17.8303C11.5623 17.7869 11.3618 17.6797 11.2045 17.5224C11.0472 17.3651 10.94 17.1646 10.8966 16.9464C10.8532 16.7282 10.8755 16.502 10.9606 16.2964C11.0458 16.0908 11.19 15.9151 11.375 15.7915C11.56 15.6679 11.7775 15.6019 12 15.6019C12.2984 15.6019 12.5845 15.7204 12.7955 15.9314C13.0065 16.1424 13.125 16.4285 13.125 16.7269ZM17.25 16.7269C17.25 16.9494 17.184 17.1669 17.0604 17.3519C16.9368 17.5369 16.7611 17.6811 16.5555 17.7663C16.35 17.8514 16.1238 17.8737 15.9055 17.8303C15.6873 17.7869 15.4868 17.6797 15.3295 17.5224C15.1722 17.3651 15.065 17.1646 15.0216 16.9464C14.9782 16.7282 15.0005 16.502 15.0856 16.2964C15.1708 16.0908 15.315 15.9151 15.5 15.7915C15.685 15.6679 15.9025 15.6019 16.125 15.6019C16.4234 15.6019 16.7095 15.7204 16.9205 15.9314C17.1315 16.1424 17.25 16.4285 17.25 16.7269Z" fill="#114036"/>
</svg>
