<svg width="24" height="25" viewBox="0 0 24 25" fill="none" xmlns="http://www.w3.org/2000/svg">
<path opacity="0.2" d="M18.3638 18.9658L14.6513 15.2533C15.3543 14.55 15.7493 13.5964 15.7493 12.602C15.7493 11.6076 15.3543 10.654 14.6513 9.95075L18.3638 6.23825C20.0515 7.92606 20.9996 10.2152 20.9996 12.602C20.9996 14.9888 20.0515 17.2779 18.3638 18.9658ZM5.63632 6.23825C3.94862 7.92606 3.00049 10.2152 3.00049 12.602C3.00049 14.9888 3.94862 17.2779 5.63632 18.9658L9.34882 15.2533C8.6458 14.55 8.25087 13.5964 8.25087 12.602C8.25087 11.6076 8.6458 10.654 9.34882 9.95075L5.63632 6.23825Z" fill="#114036"/>
<path d="M12 2.85199C10.0716 2.85199 8.18657 3.42382 6.58319 4.49516C4.97982 5.5665 3.73013 7.08925 2.99218 8.87083C2.25422 10.6524 2.06114 12.6128 2.43735 14.5041C2.81355 16.3954 3.74215 18.1327 5.10571 19.4963C6.46928 20.8598 8.20656 21.7884 10.0979 22.1646C11.9892 22.5409 13.9496 22.3478 15.7312 21.6098C17.5127 20.8719 19.0355 19.6222 20.1068 18.0188C21.1782 16.4154 21.75 14.5304 21.75 12.602C21.7473 10.017 20.7192 7.5386 18.8913 5.71071C17.0634 3.88283 14.585 2.85472 12 2.85199ZM15.6656 15.2073C16.2083 14.4469 16.4999 13.5361 16.4999 12.602C16.4999 11.6679 16.2083 10.757 15.6656 9.99668L18.3375 7.32574C19.5732 8.80626 20.2501 10.6735 20.2501 12.602C20.2501 14.5304 19.5732 16.3977 18.3375 17.8782L15.6656 15.2073ZM9 12.602C9 12.0086 9.17595 11.4286 9.5056 10.9353C9.83524 10.4419 10.3038 10.0574 10.852 9.83035C11.4001 9.60329 12.0033 9.54388 12.5853 9.65963C13.1672 9.77539 13.7018 10.0611 14.1213 10.4807C14.5409 10.9002 14.8266 11.4348 14.9424 12.0167C15.0581 12.5987 14.9987 13.2019 14.7716 13.75C14.5446 14.2982 14.1601 14.7668 13.6667 15.0964C13.1734 15.426 12.5933 15.602 12 15.602C11.2044 15.602 10.4413 15.2859 9.87868 14.7233C9.31607 14.1607 9 13.3976 9 12.602ZM17.2763 6.26449L14.6053 8.93637C13.845 8.39373 12.9341 8.10206 12 8.10206C11.0659 8.10206 10.1551 8.39373 9.39469 8.93637L6.72375 6.26449C8.20427 5.02877 10.0715 4.3519 12 4.3519C13.9285 4.3519 15.7957 5.02877 17.2763 6.26449ZM5.6625 7.32574L8.33438 9.99668C7.79175 10.757 7.50007 11.6679 7.50007 12.602C7.50007 13.5361 7.79175 14.4469 8.33438 15.2073L5.6625 17.8782C4.42678 16.3977 3.74991 14.5304 3.74991 12.602C3.74991 10.6735 4.42678 8.80626 5.6625 7.32574ZM6.72375 18.9395L9.39469 16.2676C10.1551 16.8102 11.0659 17.1019 12 17.1019C12.9341 17.1019 13.845 16.8102 14.6053 16.2676L17.2763 18.9395C15.7957 20.1752 13.9285 20.8521 12 20.8521C10.0715 20.8521 8.20427 20.1752 6.72375 18.9395Z" fill="#114036"/>
</svg>
